<svg width="220" height="400" viewBox="0 0 220 400" xmlns="http://www.w3.org/2000/svg">
  <defs>
    <linearGradient id="glass-tequila" x1="0" y1="0" x2="0" y2="1">
      <stop offset="0%" stop-color="#ffffff" stop-opacity="0.9"/>
      <stop offset="100%" stop-color="#ffffff" stop-opacity="0.08"/>
    </linearGradient>

    <linearGradient id="liquid-tequila" x1="0" y1="0" x2="0" y2="1">
      <stop offset="0%" stop-color="#fde68a"/>
      <stop offset="50%" stop-color="#facc15"/>
      <stop offset="100%" stop-color="#a16207"/>
    </linearGradient>

    <linearGradient id="highlight-tequila" x1="0" y1="0" x2="1" y2="0">
      <stop offset="0%" stop-color="#ffffff" stop-opacity="0.45"/>
      <stop offset="100%" stop-color="#ffffff" stop-opacity="0"/>
    </linearGradient>

    <clipPath id="clip-tequila">
      <path d="M90 40 L130 40 L130 110 C130 140 165 170 165 230 L165 330 C165 360 55 360 55 330 L55 230 C55 170 90 140 90 110 Z"/>
    </clipPath>
  </defs>

  <!-- Ombre -->
  <ellipse cx="110" cy="382" rx="70" ry="14" fill="#000" opacity="0.11"/>

  <!-- Corps -->
  <path d="M90 40 L130 40 L130 110 C130 140 165 170 165 230 L165 330 C165 360 55 360 55 330 L55 230 C55 170 90 140 90 110 Z"
        fill="url(#glass-tequila)" stroke="#e5e5e5" stroke-width="2.5"/>

  <!-- Liquide -->
  <path d="M65 245 L155 245 L155 330 C155 350 65 350 65 330 Z"
        fill="url(#liquid-tequila)"/>

  <!-- Reflet -->
  <g clip-path="url(#clip-tequila)">
    <rect x="75" y="70" width="20" height="240"
          fill="url(#highlight-tequila)" opacity="0.25"/>
  </g>

  <!-- Capsule sombre -->
  <rect x="85" y="15" width="50" height="40" rx="10" fill="#3f3f46"/>
  <rect x="92" y="5" width="36" height="18" rx="6" fill="#18181b"/>

  <!-- Étiquette -->
  <rect x="65" y="260" width="90" height="45" rx="8"
        fill="#fffdf5" stroke="#a16207" stroke-width="1.6"/>

  <text x="110" y="288"
        text-anchor="middle"
        font-family="Georgia, serif"
        font-size="18"
        fill="#7c2d12"
        font-weight="bold">
    Tequila
  </text>
</svg>